<mxfile host="app.diagrams.net" agent="Mozilla/5.0 (Windows NT 10.0; Win64; x64) AppleWebKit/537.36 (KHTML, like Gecko) Chrome/135.0.0.0 Safari/537.36" version="26.1.3">
  <diagram name="Pagina-1" id="6YI75HsUUGusuXryI77t">
    <mxGraphModel dx="736" dy="818" grid="0" gridSize="10" guides="1" tooltips="1" connect="1" arrows="1" fold="1" page="0" pageScale="1" pageWidth="827" pageHeight="1169" math="0" shadow="0">
      <root>
        <mxCell id="0" />
        <mxCell id="1" parent="0" />
        <mxCell id="gDMrc5JoFi_0KkXbBFFb-128" value="" style="rounded=1;whiteSpace=wrap;html=1;dashed=1;dashPattern=12 12;" vertex="1" parent="1">
          <mxGeometry x="654" y="337" width="680" height="344" as="geometry" />
        </mxCell>
        <mxCell id="gDMrc5JoFi_0KkXbBFFb-55" style="edgeStyle=none;curved=1;rounded=0;orthogonalLoop=1;jettySize=auto;html=1;exitX=1;exitY=0.5;exitDx=0;exitDy=0;entryX=0;entryY=0.5;entryDx=0;entryDy=0;fontSize=12;startSize=8;endSize=8;" edge="1" parent="1" source="gDMrc5JoFi_0KkXbBFFb-1" target="gDMrc5JoFi_0KkXbBFFb-3">
          <mxGeometry relative="1" as="geometry" />
        </mxCell>
        <mxCell id="gDMrc5JoFi_0KkXbBFFb-1" value="test.json" style="rounded=1;whiteSpace=wrap;html=1;" vertex="1" parent="1">
          <mxGeometry x="13.5" y="-255" width="96" height="30" as="geometry" />
        </mxCell>
        <mxCell id="gDMrc5JoFi_0KkXbBFFb-56" style="edgeStyle=none;curved=1;rounded=0;orthogonalLoop=1;jettySize=auto;html=1;exitX=0;exitY=0.5;exitDx=0;exitDy=0;entryX=1;entryY=0.5;entryDx=0;entryDy=0;fontSize=12;startSize=8;endSize=8;" edge="1" parent="1" source="gDMrc5JoFi_0KkXbBFFb-2" target="gDMrc5JoFi_0KkXbBFFb-3">
          <mxGeometry relative="1" as="geometry" />
        </mxCell>
        <mxCell id="gDMrc5JoFi_0KkXbBFFb-2" value="mappatura.json" style="rounded=1;whiteSpace=wrap;html=1;" vertex="1" parent="1">
          <mxGeometry x="285.5" y="-255" width="96" height="30" as="geometry" />
        </mxCell>
        <mxCell id="gDMrc5JoFi_0KkXbBFFb-57" style="edgeStyle=none;curved=1;rounded=0;orthogonalLoop=1;jettySize=auto;html=1;exitX=0.5;exitY=1;exitDx=0;exitDy=0;entryX=0.5;entryY=0;entryDx=0;entryDy=0;fontSize=12;startSize=8;endSize=8;" edge="1" parent="1" source="gDMrc5JoFi_0KkXbBFFb-3" target="gDMrc5JoFi_0KkXbBFFb-10">
          <mxGeometry relative="1" as="geometry" />
        </mxCell>
        <mxCell id="gDMrc5JoFi_0KkXbBFFb-3" value="master.py" style="rounded=1;whiteSpace=wrap;html=1;fontSize=21;" vertex="1" parent="1">
          <mxGeometry x="137.5" y="-270" width="120" height="60" as="geometry" />
        </mxCell>
        <mxCell id="gDMrc5JoFi_0KkXbBFFb-6" value="process parallelization" style="rounded=1;whiteSpace=wrap;html=1;dashed=1;dashPattern=8 8;fontSize=16;verticalAlign=bottom;" vertex="1" parent="1">
          <mxGeometry x="91.5" y="277" width="212" height="295" as="geometry" />
        </mxCell>
        <mxCell id="gDMrc5JoFi_0KkXbBFFb-7" value="class Node.run()&lt;br&gt;&lt;font style=&quot;font-size: 14px;&quot;&gt;node1&lt;/font&gt;" style="rounded=1;whiteSpace=wrap;html=1;fontSize=21;" vertex="1" parent="1">
          <mxGeometry x="114" y="297" width="167" height="60" as="geometry" />
        </mxCell>
        <mxCell id="gDMrc5JoFi_0KkXbBFFb-8" value="class Node.run()&lt;br&gt;&lt;font style=&quot;font-size: 14px;&quot;&gt;node2&lt;/font&gt;" style="rounded=1;whiteSpace=wrap;html=1;fontSize=21;" vertex="1" parent="1">
          <mxGeometry x="114" y="380" width="167" height="60" as="geometry" />
        </mxCell>
        <mxCell id="gDMrc5JoFi_0KkXbBFFb-58" style="edgeStyle=none;curved=1;rounded=0;orthogonalLoop=1;jettySize=auto;html=1;exitX=0.5;exitY=1;exitDx=0;exitDy=0;entryX=0.5;entryY=0;entryDx=0;entryDy=0;fontSize=12;startSize=8;endSize=8;" edge="1" parent="1" source="gDMrc5JoFi_0KkXbBFFb-10" target="gDMrc5JoFi_0KkXbBFFb-6">
          <mxGeometry relative="1" as="geometry" />
        </mxCell>
        <mxCell id="gDMrc5JoFi_0KkXbBFFb-10" value="shared memory" style="rounded=1;whiteSpace=wrap;html=1;dashed=1;dashPattern=8 8;fontSize=16;verticalAlign=bottom;" vertex="1" parent="1">
          <mxGeometry x="53" y="-161" width="289" height="405" as="geometry" />
        </mxCell>
        <mxCell id="gDMrc5JoFi_0KkXbBFFb-11" value="" style="rounded=0;whiteSpace=wrap;html=1;" vertex="1" parent="1">
          <mxGeometry x="88" y="-123.5" width="168" height="25" as="geometry" />
        </mxCell>
        <mxCell id="gDMrc5JoFi_0KkXbBFFb-12" value="" style="line;strokeWidth=2;direction=south;html=1;" vertex="1" parent="1">
          <mxGeometry x="104" y="-120" width="10" height="18" as="geometry" />
        </mxCell>
        <mxCell id="gDMrc5JoFi_0KkXbBFFb-13" value="" style="line;strokeWidth=2;direction=south;html=1;" vertex="1" parent="1">
          <mxGeometry x="129" y="-120" width="10" height="18" as="geometry" />
        </mxCell>
        <mxCell id="gDMrc5JoFi_0KkXbBFFb-14" value="" style="line;strokeWidth=2;direction=south;html=1;" vertex="1" parent="1">
          <mxGeometry x="153" y="-120" width="10" height="18" as="geometry" />
        </mxCell>
        <mxCell id="gDMrc5JoFi_0KkXbBFFb-15" value="" style="line;strokeWidth=2;direction=south;html=1;" vertex="1" parent="1">
          <mxGeometry x="178" y="-120" width="10" height="18" as="geometry" />
        </mxCell>
        <mxCell id="gDMrc5JoFi_0KkXbBFFb-16" value="" style="line;strokeWidth=2;direction=south;html=1;" vertex="1" parent="1">
          <mxGeometry x="202" y="-120" width="10" height="18" as="geometry" />
        </mxCell>
        <mxCell id="gDMrc5JoFi_0KkXbBFFb-17" value="" style="line;strokeWidth=2;direction=south;html=1;" vertex="1" parent="1">
          <mxGeometry x="227" y="-120" width="10" height="18" as="geometry" />
        </mxCell>
        <mxCell id="gDMrc5JoFi_0KkXbBFFb-18" value="" style="shape=curlyBracket;whiteSpace=wrap;html=1;rounded=1;flipH=1;labelPosition=right;verticalLabelPosition=middle;align=left;verticalAlign=middle;rotation=90;" vertex="1" parent="1">
          <mxGeometry x="161.5" y="-167.5" width="20" height="171" as="geometry" />
        </mxCell>
        <mxCell id="gDMrc5JoFi_0KkXbBFFb-19" value="DAQ IN" style="text;html=1;align=center;verticalAlign=middle;whiteSpace=wrap;rounded=0;" vertex="1" parent="1">
          <mxGeometry x="266" y="-126" width="60" height="30" as="geometry" />
        </mxCell>
        <mxCell id="gDMrc5JoFi_0KkXbBFFb-20" value="N" style="text;html=1;align=center;verticalAlign=middle;whiteSpace=wrap;rounded=0;" vertex="1" parent="1">
          <mxGeometry x="141.5" y="-76" width="60" height="30" as="geometry" />
        </mxCell>
        <mxCell id="gDMrc5JoFi_0KkXbBFFb-21" value="" style="rounded=0;whiteSpace=wrap;html=1;" vertex="1" parent="1">
          <mxGeometry x="88" y="-43" width="168" height="25" as="geometry" />
        </mxCell>
        <mxCell id="gDMrc5JoFi_0KkXbBFFb-22" value="" style="line;strokeWidth=2;direction=south;html=1;" vertex="1" parent="1">
          <mxGeometry x="104" y="-39.5" width="10" height="18" as="geometry" />
        </mxCell>
        <mxCell id="gDMrc5JoFi_0KkXbBFFb-23" value="" style="line;strokeWidth=2;direction=south;html=1;" vertex="1" parent="1">
          <mxGeometry x="129" y="-39.5" width="10" height="18" as="geometry" />
        </mxCell>
        <mxCell id="gDMrc5JoFi_0KkXbBFFb-24" value="" style="line;strokeWidth=2;direction=south;html=1;" vertex="1" parent="1">
          <mxGeometry x="153" y="-39.5" width="10" height="18" as="geometry" />
        </mxCell>
        <mxCell id="gDMrc5JoFi_0KkXbBFFb-25" value="" style="line;strokeWidth=2;direction=south;html=1;" vertex="1" parent="1">
          <mxGeometry x="178" y="-39.5" width="10" height="18" as="geometry" />
        </mxCell>
        <mxCell id="gDMrc5JoFi_0KkXbBFFb-26" value="" style="line;strokeWidth=2;direction=south;html=1;" vertex="1" parent="1">
          <mxGeometry x="202" y="-39.5" width="10" height="18" as="geometry" />
        </mxCell>
        <mxCell id="gDMrc5JoFi_0KkXbBFFb-27" value="" style="line;strokeWidth=2;direction=south;html=1;" vertex="1" parent="1">
          <mxGeometry x="227" y="-39.5" width="10" height="18" as="geometry" />
        </mxCell>
        <mxCell id="gDMrc5JoFi_0KkXbBFFb-28" value="" style="shape=curlyBracket;whiteSpace=wrap;html=1;rounded=1;flipH=1;labelPosition=right;verticalLabelPosition=middle;align=left;verticalAlign=middle;rotation=90;" vertex="1" parent="1">
          <mxGeometry x="161.5" y="-87" width="20" height="171" as="geometry" />
        </mxCell>
        <mxCell id="gDMrc5JoFi_0KkXbBFFb-29" value="DAQ OUT" style="text;html=1;align=center;verticalAlign=middle;whiteSpace=wrap;rounded=0;" vertex="1" parent="1">
          <mxGeometry x="266" y="-45.5" width="60" height="30" as="geometry" />
        </mxCell>
        <mxCell id="gDMrc5JoFi_0KkXbBFFb-30" value="M" style="text;html=1;align=center;verticalAlign=middle;whiteSpace=wrap;rounded=0;" vertex="1" parent="1">
          <mxGeometry x="141.5" y="4.5" width="60" height="30" as="geometry" />
        </mxCell>
        <mxCell id="gDMrc5JoFi_0KkXbBFFb-31" value="" style="rounded=0;whiteSpace=wrap;html=1;" vertex="1" parent="1">
          <mxGeometry x="88" y="37" width="168" height="25" as="geometry" />
        </mxCell>
        <mxCell id="gDMrc5JoFi_0KkXbBFFb-32" value="" style="line;strokeWidth=2;direction=south;html=1;" vertex="1" parent="1">
          <mxGeometry x="104" y="40.5" width="10" height="18" as="geometry" />
        </mxCell>
        <mxCell id="gDMrc5JoFi_0KkXbBFFb-33" value="" style="line;strokeWidth=2;direction=south;html=1;" vertex="1" parent="1">
          <mxGeometry x="129" y="40.5" width="10" height="18" as="geometry" />
        </mxCell>
        <mxCell id="gDMrc5JoFi_0KkXbBFFb-34" value="" style="line;strokeWidth=2;direction=south;html=1;" vertex="1" parent="1">
          <mxGeometry x="153" y="40.5" width="10" height="18" as="geometry" />
        </mxCell>
        <mxCell id="gDMrc5JoFi_0KkXbBFFb-35" value="" style="line;strokeWidth=2;direction=south;html=1;" vertex="1" parent="1">
          <mxGeometry x="178" y="40.5" width="10" height="18" as="geometry" />
        </mxCell>
        <mxCell id="gDMrc5JoFi_0KkXbBFFb-36" value="" style="line;strokeWidth=2;direction=south;html=1;" vertex="1" parent="1">
          <mxGeometry x="202" y="40.5" width="10" height="18" as="geometry" />
        </mxCell>
        <mxCell id="gDMrc5JoFi_0KkXbBFFb-37" value="" style="line;strokeWidth=2;direction=south;html=1;" vertex="1" parent="1">
          <mxGeometry x="227" y="40.5" width="10" height="18" as="geometry" />
        </mxCell>
        <mxCell id="gDMrc5JoFi_0KkXbBFFb-38" value="" style="shape=curlyBracket;whiteSpace=wrap;html=1;rounded=1;flipH=1;labelPosition=right;verticalLabelPosition=middle;align=left;verticalAlign=middle;rotation=90;" vertex="1" parent="1">
          <mxGeometry x="161.5" y="-7" width="20" height="171" as="geometry" />
        </mxCell>
        <mxCell id="gDMrc5JoFi_0KkXbBFFb-39" value="Node 1 OUT" style="text;html=1;align=center;verticalAlign=middle;whiteSpace=wrap;rounded=0;" vertex="1" parent="1">
          <mxGeometry x="266" y="34.5" width="60" height="30" as="geometry" />
        </mxCell>
        <mxCell id="gDMrc5JoFi_0KkXbBFFb-40" value="test.json -&amp;gt; Node 1.Number_signal_ouy" style="text;html=1;align=center;verticalAlign=middle;whiteSpace=wrap;rounded=0;" vertex="1" parent="1">
          <mxGeometry x="56.25" y="87" width="230.5" height="30" as="geometry" />
        </mxCell>
        <mxCell id="gDMrc5JoFi_0KkXbBFFb-41" value="" style="rounded=0;whiteSpace=wrap;html=1;" vertex="1" parent="1">
          <mxGeometry x="88" y="127" width="168" height="25" as="geometry" />
        </mxCell>
        <mxCell id="gDMrc5JoFi_0KkXbBFFb-42" value="" style="line;strokeWidth=2;direction=south;html=1;" vertex="1" parent="1">
          <mxGeometry x="104" y="130.5" width="10" height="18" as="geometry" />
        </mxCell>
        <mxCell id="gDMrc5JoFi_0KkXbBFFb-43" value="" style="line;strokeWidth=2;direction=south;html=1;" vertex="1" parent="1">
          <mxGeometry x="129" y="130.5" width="10" height="18" as="geometry" />
        </mxCell>
        <mxCell id="gDMrc5JoFi_0KkXbBFFb-44" value="" style="line;strokeWidth=2;direction=south;html=1;" vertex="1" parent="1">
          <mxGeometry x="153" y="130.5" width="10" height="18" as="geometry" />
        </mxCell>
        <mxCell id="gDMrc5JoFi_0KkXbBFFb-45" value="" style="line;strokeWidth=2;direction=south;html=1;" vertex="1" parent="1">
          <mxGeometry x="178" y="130.5" width="10" height="18" as="geometry" />
        </mxCell>
        <mxCell id="gDMrc5JoFi_0KkXbBFFb-46" value="" style="line;strokeWidth=2;direction=south;html=1;" vertex="1" parent="1">
          <mxGeometry x="202" y="130.5" width="10" height="18" as="geometry" />
        </mxCell>
        <mxCell id="gDMrc5JoFi_0KkXbBFFb-47" value="" style="line;strokeWidth=2;direction=south;html=1;" vertex="1" parent="1">
          <mxGeometry x="227" y="130.5" width="10" height="18" as="geometry" />
        </mxCell>
        <mxCell id="gDMrc5JoFi_0KkXbBFFb-48" value="" style="shape=curlyBracket;whiteSpace=wrap;html=1;rounded=1;flipH=1;labelPosition=right;verticalLabelPosition=middle;align=left;verticalAlign=middle;rotation=90;" vertex="1" parent="1">
          <mxGeometry x="161.5" y="83" width="20" height="171" as="geometry" />
        </mxCell>
        <mxCell id="gDMrc5JoFi_0KkXbBFFb-49" value="Node 2 OUT" style="text;html=1;align=center;verticalAlign=middle;whiteSpace=wrap;rounded=0;" vertex="1" parent="1">
          <mxGeometry x="266" y="124.5" width="60" height="30" as="geometry" />
        </mxCell>
        <mxCell id="gDMrc5JoFi_0KkXbBFFb-50" value="test.json -&amp;gt; Node 1.Number_signal_ouy" style="text;html=1;align=center;verticalAlign=middle;whiteSpace=wrap;rounded=0;" vertex="1" parent="1">
          <mxGeometry x="56.25" y="177" width="230.5" height="30" as="geometry" />
        </mxCell>
        <mxCell id="gDMrc5JoFi_0KkXbBFFb-51" value="" style="shape=curlyBracket;whiteSpace=wrap;html=1;rounded=1;flipH=1;labelPosition=right;verticalLabelPosition=middle;align=left;verticalAlign=middle;fontColor=#FF3333;labelBorderColor=#FF3333;strokeColor=#FF3333;" vertex="1" parent="1">
          <mxGeometry x="360" y="-121" width="20" height="120" as="geometry" />
        </mxCell>
        <mxCell id="gDMrc5JoFi_0KkXbBFFb-52" value="DIPENDONO SOLO DA HARDWARE E NON DAI JSON" style="text;html=1;align=center;verticalAlign=middle;whiteSpace=wrap;rounded=0;fontColor=#FF3333;" vertex="1" parent="1">
          <mxGeometry x="388" y="-73" width="60" height="30" as="geometry" />
        </mxCell>
        <mxCell id="gDMrc5JoFi_0KkXbBFFb-53" value="" style="shape=curlyBracket;whiteSpace=wrap;html=1;rounded=1;flipH=1;labelPosition=right;verticalLabelPosition=middle;align=left;verticalAlign=middle;fontColor=#FF3333;labelBorderColor=#FF3333;strokeColor=#FF3333;" vertex="1" parent="1">
          <mxGeometry x="360" y="39" width="20" height="120" as="geometry" />
        </mxCell>
        <mxCell id="gDMrc5JoFi_0KkXbBFFb-54" value="VERSO RETE" style="text;html=1;align=center;verticalAlign=middle;whiteSpace=wrap;rounded=0;fontColor=#FF3333;" vertex="1" parent="1">
          <mxGeometry x="388" y="87" width="60" height="30" as="geometry" />
        </mxCell>
        <mxCell id="gDMrc5JoFi_0KkXbBFFb-59" value="class DAQ MANAGER" style="rounded=1;whiteSpace=wrap;html=1;fontSize=21;" vertex="1" parent="1">
          <mxGeometry x="114" y="463" width="167" height="60" as="geometry" />
        </mxCell>
        <mxCell id="gDMrc5JoFi_0KkXbBFFb-60" value="" style="shape=curlyBracket;whiteSpace=wrap;html=1;rounded=1;flipH=1;labelPosition=right;verticalLabelPosition=middle;align=left;verticalAlign=middle;fontColor=#FF3333;labelBorderColor=#FF3333;strokeColor=#FF3333;" vertex="1" parent="1">
          <mxGeometry x="360" y="299" width="20" height="152" as="geometry" />
        </mxCell>
        <mxCell id="gDMrc5JoFi_0KkXbBFFb-61" value="UN PROCESSO PER NODO CHE A SUA VOLTA USA ASYNCIO PER BI-DIREZIONALITà" style="text;html=1;align=center;verticalAlign=middle;whiteSpace=wrap;rounded=0;fontColor=#FF3333;" vertex="1" parent="1">
          <mxGeometry x="388" y="347" width="128" height="30" as="geometry" />
        </mxCell>
        <mxCell id="gDMrc5JoFi_0KkXbBFFb-62" value="" style="shape=curlyBracket;whiteSpace=wrap;html=1;rounded=1;flipH=1;labelPosition=right;verticalLabelPosition=middle;align=left;verticalAlign=middle;fontColor=#FF3333;labelBorderColor=#FF3333;strokeColor=#FF3333;" vertex="1" parent="1">
          <mxGeometry x="360" y="463" width="20" height="61" as="geometry" />
        </mxCell>
        <mxCell id="gDMrc5JoFi_0KkXbBFFb-63" value="ATTUA DAQ OUT E LEGGE DAQ IN SU MEMORIA CONDIVISA&lt;br&gt;(SE D.M.A. PROBABILMENTE NON SERVE)" style="text;html=1;align=center;verticalAlign=middle;whiteSpace=wrap;rounded=0;fontColor=#FF3333;" vertex="1" parent="1">
          <mxGeometry x="388" y="477" width="168" height="30" as="geometry" />
        </mxCell>
        <mxCell id="gDMrc5JoFi_0KkXbBFFb-66" style="edgeStyle=none;curved=1;rounded=0;orthogonalLoop=1;jettySize=auto;html=1;exitX=0.5;exitY=1;exitDx=0;exitDy=0;fontSize=12;startSize=8;endSize=8;" edge="1" parent="1" source="gDMrc5JoFi_0KkXbBFFb-64" target="gDMrc5JoFi_0KkXbBFFb-65">
          <mxGeometry relative="1" as="geometry" />
        </mxCell>
        <mxCell id="gDMrc5JoFi_0KkXbBFFb-64" value="class Node.run()" style="rounded=1;whiteSpace=wrap;html=1;fontSize=21;" vertex="1" parent="1">
          <mxGeometry x="560" y="-270" width="167" height="60" as="geometry" />
        </mxCell>
        <mxCell id="gDMrc5JoFi_0KkXbBFFb-65" value="ASYNCIO" style="rounded=1;whiteSpace=wrap;html=1;dashed=1;dashPattern=8 8;fontSize=16;verticalAlign=bottom;" vertex="1" parent="1">
          <mxGeometry x="537.5" y="-170.5" width="212" height="198.5" as="geometry" />
        </mxCell>
        <mxCell id="gDMrc5JoFi_0KkXbBFFb-67" value="from_remote()" style="rounded=1;whiteSpace=wrap;html=1;fontSize=21;" vertex="1" parent="1">
          <mxGeometry x="562" y="-158.5" width="163" height="60" as="geometry" />
        </mxCell>
        <mxCell id="gDMrc5JoFi_0KkXbBFFb-68" value="to_remote()" style="rounded=1;whiteSpace=wrap;html=1;fontSize=21;" vertex="1" parent="1">
          <mxGeometry x="562" y="-67" width="163" height="60" as="geometry" />
        </mxCell>
        <mxCell id="gDMrc5JoFi_0KkXbBFFb-70" value="" style="swimlane;childLayout=stackLayout;horizontal=1;fillColor=none;horizontalStack=1;resizeParent=1;resizeParentMax=0;resizeLast=0;collapsible=0;strokeColor=none;stackBorder=10;stackSpacing=-12;resizable=1;align=center;points=[];whiteSpace=wrap;html=1;startSize=0;verticalAlign=top;" vertex="1" parent="1">
          <mxGeometry x="836" y="-191" width="591" height="123" as="geometry" />
        </mxCell>
        <mxCell id="gDMrc5JoFi_0KkXbBFFb-71" value="&lt;font style=&quot;font-size: 17px;&quot;&gt;receive():&lt;/font&gt;&lt;div&gt;&lt;font style=&quot;font-size: 17px;&quot;&gt;&lt;br&gt;&lt;/font&gt;&lt;/div&gt;&lt;div&gt;&lt;font style=&quot;font-size: 17px;&quot;&gt;&lt;br&gt;&lt;/font&gt;&lt;/div&gt;&lt;div&gt;&lt;br&gt;&lt;/div&gt;" style="shape=step;perimeter=stepPerimeter;fixedSize=1;points=[];whiteSpace=wrap;html=1;verticalAlign=top;" vertex="1" parent="gDMrc5JoFi_0KkXbBFFb-70">
          <mxGeometry x="10" y="10" width="247" height="103" as="geometry" />
        </mxCell>
        <mxCell id="gDMrc5JoFi_0KkXbBFFb-72" value="&lt;font style=&quot;font-size: 17px;&quot;&gt;parse():&lt;/font&gt;&lt;div&gt;&lt;font style=&quot;font-size: 17px;&quot;&gt;&lt;br&gt;&lt;/font&gt;&lt;/div&gt;&lt;div&gt;&lt;font style=&quot;font-size: 17px;&quot;&gt;&lt;br&gt;&lt;/font&gt;&lt;/div&gt;&lt;div&gt;&lt;br&gt;&lt;/div&gt;&lt;div&gt;&lt;br&gt;&lt;/div&gt;" style="shape=step;perimeter=stepPerimeter;fixedSize=1;points=[];whiteSpace=wrap;html=1;" vertex="1" parent="gDMrc5JoFi_0KkXbBFFb-70">
          <mxGeometry x="245" y="10" width="248" height="103" as="geometry" />
        </mxCell>
        <mxCell id="gDMrc5JoFi_0KkXbBFFb-73" value="REPEAT" style="shape=step;perimeter=stepPerimeter;fixedSize=1;points=[];whiteSpace=wrap;html=1;" vertex="1" parent="gDMrc5JoFi_0KkXbBFFb-70">
          <mxGeometry x="481" y="10" width="100" height="103" as="geometry" />
        </mxCell>
        <mxCell id="gDMrc5JoFi_0KkXbBFFb-87" value="" style="group" vertex="1" connectable="0" parent="1">
          <mxGeometry x="850" y="-151" width="209.75" height="60" as="geometry" />
        </mxCell>
        <mxCell id="gDMrc5JoFi_0KkXbBFFb-77" value="" style="rounded=0;whiteSpace=wrap;html=1;" vertex="1" parent="gDMrc5JoFi_0KkXbBFFb-87">
          <mxGeometry x="24.68790546802595" y="1.8181818181818183" width="130.63206672845226" height="18.181818181818183" as="geometry" />
        </mxCell>
        <mxCell id="gDMrc5JoFi_0KkXbBFFb-78" value="" style="line;strokeWidth=2;direction=south;html=1;" vertex="1" parent="gDMrc5JoFi_0KkXbBFFb-87">
          <mxGeometry x="37.1290546802595" y="4.363636363636363" width="7.775718257645968" height="13.090909090909092" as="geometry" />
        </mxCell>
        <mxCell id="gDMrc5JoFi_0KkXbBFFb-79" value="" style="line;strokeWidth=2;direction=south;html=1;" vertex="1" parent="gDMrc5JoFi_0KkXbBFFb-87">
          <mxGeometry x="56.56835032437442" y="4.363636363636363" width="7.775718257645968" height="13.090909090909092" as="geometry" />
        </mxCell>
        <mxCell id="gDMrc5JoFi_0KkXbBFFb-80" value="" style="line;strokeWidth=2;direction=south;html=1;" vertex="1" parent="gDMrc5JoFi_0KkXbBFFb-87">
          <mxGeometry x="75.23007414272475" y="4.363636363636363" width="7.775718257645968" height="13.090909090909092" as="geometry" />
        </mxCell>
        <mxCell id="gDMrc5JoFi_0KkXbBFFb-81" value="" style="line;strokeWidth=2;direction=south;html=1;" vertex="1" parent="gDMrc5JoFi_0KkXbBFFb-87">
          <mxGeometry x="94.66936978683967" y="4.363636363636363" width="7.775718257645968" height="13.090909090909092" as="geometry" />
        </mxCell>
        <mxCell id="gDMrc5JoFi_0KkXbBFFb-82" value="" style="line;strokeWidth=2;direction=south;html=1;" vertex="1" parent="gDMrc5JoFi_0KkXbBFFb-87">
          <mxGeometry x="113.33109360518999" y="4.363636363636363" width="7.775718257645968" height="13.090909090909092" as="geometry" />
        </mxCell>
        <mxCell id="gDMrc5JoFi_0KkXbBFFb-83" value="" style="line;strokeWidth=2;direction=south;html=1;" vertex="1" parent="gDMrc5JoFi_0KkXbBFFb-87">
          <mxGeometry x="132.7703892493049" y="4.363636363636363" width="7.775718257645968" height="13.090909090909092" as="geometry" />
        </mxCell>
        <mxCell id="gDMrc5JoFi_0KkXbBFFb-84" value="" style="shape=curlyBracket;whiteSpace=wrap;html=1;rounded=1;flipH=1;labelPosition=right;verticalLabelPosition=middle;align=left;verticalAlign=middle;rotation=90;" vertex="1" parent="gDMrc5JoFi_0KkXbBFFb-87">
          <mxGeometry x="81.83943466172381" y="-30.181818181818183" width="15.551436515291936" height="124.36363636363637" as="geometry" />
        </mxCell>
        <mxCell id="gDMrc5JoFi_0KkXbBFFb-85" value="Node 1 IN" style="text;html=1;align=center;verticalAlign=middle;whiteSpace=wrap;rounded=0;" vertex="1" parent="gDMrc5JoFi_0KkXbBFFb-87">
          <mxGeometry x="163.0956904541242" width="46.65430954587581" height="21.81818181818182" as="geometry" />
        </mxCell>
        <mxCell id="gDMrc5JoFi_0KkXbBFFb-86" value="test.json -&amp;gt; Node 1.Number_signal_in" style="text;html=1;align=center;verticalAlign=middle;whiteSpace=wrap;rounded=0;" vertex="1" parent="gDMrc5JoFi_0KkXbBFFb-87">
          <mxGeometry y="38.18181818181818" width="179.23030583873958" height="21.81818181818182" as="geometry" />
        </mxCell>
        <mxCell id="gDMrc5JoFi_0KkXbBFFb-96" value="" style="points=[[0.25,0,0],[0.5,0,0],[0.75,0,0],[1,0.25,0],[1,0.5,0],[1,0.75,0],[0.75,1,0],[0.5,1,0],[0.25,1,0],[0,0.75,0],[0,0.5,0],[0,0.25,0]];shape=mxgraph.bpmn.task2;whiteSpace=wrap;rectStyle=rounded;size=10;html=1;container=1;expand=0;collapsible=0;taskMarker=abstract;isLoopStandard=1;align=left;" vertex="1" parent="1">
          <mxGeometry x="1123" y="-54" width="168" height="80" as="geometry" />
        </mxCell>
        <mxCell id="gDMrc5JoFi_0KkXbBFFb-97" value="&lt;span style=&quot;color: rgb(0, 0, 0); font-family: Helvetica; font-size: 12px; font-style: normal; font-variant-ligatures: normal; font-variant-caps: normal; font-weight: 400; letter-spacing: normal; orphans: 2; text-align: left; text-indent: 0px; text-transform: none; widows: 2; word-spacing: 0px; -webkit-text-stroke-width: 0px; white-space: normal; background-color: rgb(255, 255, 255); text-decoration-thickness: initial; text-decoration-style: initial; text-decoration-color: initial; display: inline !important; float: none;&quot;&gt;for every signal in input:&lt;/span&gt;&lt;div style=&quot;forced-color-adjust: none; color: rgb(0, 0, 0); font-family: Helvetica; font-size: 12px; font-style: normal; font-variant-ligatures: normal; font-variant-caps: normal; font-weight: 400; letter-spacing: normal; orphans: 2; text-align: left; text-indent: 0px; text-transform: none; widows: 2; word-spacing: 0px; -webkit-text-stroke-width: 0px; white-space: normal; background-color: rgb(255, 255, 255); text-decoration-thickness: initial; text-decoration-style: initial; text-decoration-color: initial;&quot;&gt;&lt;ul style=&quot;forced-color-adjust: none;&quot;&gt;&lt;li style=&quot;forced-color-adjust: none;&quot;&gt;signal.actuate()&lt;/li&gt;&lt;/ul&gt;&lt;/div&gt;" style="text;whiteSpace=wrap;html=1;" vertex="1" parent="gDMrc5JoFi_0KkXbBFFb-96">
          <mxGeometry x="6.501416648582108" y="4.9956123634620795" width="155" height="75" as="geometry" />
        </mxCell>
        <mxCell id="gDMrc5JoFi_0KkXbBFFb-99" value="PROPORREI DI DEFINIRE DELLE CODIFICHE SUI NOMI COSì DA NON DOVER PROPAGARE I LIK DELLE SHARED MEMORY A CASCATA" style="text;html=1;align=center;verticalAlign=middle;whiteSpace=wrap;rounded=0;fontColor=#FF3333;" vertex="1" parent="1">
          <mxGeometry x="342" y="219" width="419.5" height="30" as="geometry" />
        </mxCell>
        <mxCell id="gDMrc5JoFi_0KkXbBFFb-101" style="edgeStyle=none;curved=1;rounded=0;orthogonalLoop=1;jettySize=auto;html=1;exitX=0.5;exitY=0;exitDx=0;exitDy=0;exitPerimeter=0;entryX=0.506;entryY=1.01;entryDx=0;entryDy=0;entryPerimeter=0;fontSize=12;startSize=8;endSize=8;" edge="1" parent="1" source="gDMrc5JoFi_0KkXbBFFb-96" target="gDMrc5JoFi_0KkXbBFFb-72">
          <mxGeometry relative="1" as="geometry" />
        </mxCell>
        <mxCell id="gDMrc5JoFi_0KkXbBFFb-102" style="edgeStyle=none;curved=1;rounded=0;orthogonalLoop=1;jettySize=auto;html=1;exitX=1;exitY=0.5;exitDx=0;exitDy=0;entryX=0.086;entryY=0.516;entryDx=0;entryDy=0;entryPerimeter=0;fontSize=12;startSize=8;endSize=8;" edge="1" parent="1" source="gDMrc5JoFi_0KkXbBFFb-67" target="gDMrc5JoFi_0KkXbBFFb-71">
          <mxGeometry relative="1" as="geometry" />
        </mxCell>
        <mxCell id="gDMrc5JoFi_0KkXbBFFb-103" value="" style="swimlane;childLayout=stackLayout;horizontal=1;fillColor=none;horizontalStack=1;resizeParent=1;resizeParentMax=0;resizeLast=0;collapsible=0;strokeColor=none;stackBorder=10;stackSpacing=-12;resizable=1;align=center;points=[];whiteSpace=wrap;html=1;startSize=0;verticalAlign=top;" vertex="1" parent="1">
          <mxGeometry x="836" y="83" width="591" height="123" as="geometry" />
        </mxCell>
        <mxCell id="gDMrc5JoFi_0KkXbBFFb-105" value="&lt;font style=&quot;font-size: 17px;&quot;&gt;parse():&lt;/font&gt;&lt;div&gt;&lt;font style=&quot;font-size: 17px;&quot;&gt;&lt;br&gt;&lt;/font&gt;&lt;/div&gt;&lt;div&gt;&lt;font style=&quot;font-size: 17px;&quot;&gt;&lt;br&gt;&lt;/font&gt;&lt;/div&gt;&lt;div&gt;&lt;br&gt;&lt;/div&gt;&lt;div&gt;&lt;br&gt;&lt;/div&gt;" style="shape=step;perimeter=stepPerimeter;fixedSize=1;points=[];whiteSpace=wrap;html=1;" vertex="1" parent="gDMrc5JoFi_0KkXbBFFb-103">
          <mxGeometry x="10" y="10" width="248" height="103" as="geometry" />
        </mxCell>
        <mxCell id="gDMrc5JoFi_0KkXbBFFb-104" value="&lt;font style=&quot;font-size: 17px;&quot;&gt;SEND():&lt;/font&gt;&lt;div&gt;&lt;font style=&quot;font-size: 17px;&quot;&gt;&lt;br&gt;&lt;/font&gt;&lt;/div&gt;&lt;div&gt;&lt;font style=&quot;font-size: 17px;&quot;&gt;&lt;br&gt;&lt;/font&gt;&lt;/div&gt;&lt;div&gt;&lt;br&gt;&lt;/div&gt;" style="shape=step;perimeter=stepPerimeter;fixedSize=1;points=[];whiteSpace=wrap;html=1;verticalAlign=top;" vertex="1" parent="gDMrc5JoFi_0KkXbBFFb-103">
          <mxGeometry x="246" y="10" width="247" height="103" as="geometry" />
        </mxCell>
        <mxCell id="gDMrc5JoFi_0KkXbBFFb-106" value="REPEAT" style="shape=step;perimeter=stepPerimeter;fixedSize=1;points=[];whiteSpace=wrap;html=1;" vertex="1" parent="gDMrc5JoFi_0KkXbBFFb-103">
          <mxGeometry x="481" y="10" width="100" height="103" as="geometry" />
        </mxCell>
        <mxCell id="gDMrc5JoFi_0KkXbBFFb-107" value="" style="group" vertex="1" connectable="0" parent="1">
          <mxGeometry x="1084" y="123" width="209.75" height="60" as="geometry" />
        </mxCell>
        <mxCell id="gDMrc5JoFi_0KkXbBFFb-108" value="" style="rounded=0;whiteSpace=wrap;html=1;" vertex="1" parent="gDMrc5JoFi_0KkXbBFFb-107">
          <mxGeometry x="24.68790546802595" y="1.8181818181818183" width="130.63206672845226" height="18.181818181818183" as="geometry" />
        </mxCell>
        <mxCell id="gDMrc5JoFi_0KkXbBFFb-109" value="" style="line;strokeWidth=2;direction=south;html=1;" vertex="1" parent="gDMrc5JoFi_0KkXbBFFb-107">
          <mxGeometry x="37.1290546802595" y="4.363636363636363" width="7.775718257645968" height="13.090909090909092" as="geometry" />
        </mxCell>
        <mxCell id="gDMrc5JoFi_0KkXbBFFb-110" value="" style="line;strokeWidth=2;direction=south;html=1;" vertex="1" parent="gDMrc5JoFi_0KkXbBFFb-107">
          <mxGeometry x="56.56835032437442" y="4.363636363636363" width="7.775718257645968" height="13.090909090909092" as="geometry" />
        </mxCell>
        <mxCell id="gDMrc5JoFi_0KkXbBFFb-111" value="" style="line;strokeWidth=2;direction=south;html=1;" vertex="1" parent="gDMrc5JoFi_0KkXbBFFb-107">
          <mxGeometry x="75.23007414272475" y="4.363636363636363" width="7.775718257645968" height="13.090909090909092" as="geometry" />
        </mxCell>
        <mxCell id="gDMrc5JoFi_0KkXbBFFb-112" value="" style="line;strokeWidth=2;direction=south;html=1;" vertex="1" parent="gDMrc5JoFi_0KkXbBFFb-107">
          <mxGeometry x="94.66936978683967" y="4.363636363636363" width="7.775718257645968" height="13.090909090909092" as="geometry" />
        </mxCell>
        <mxCell id="gDMrc5JoFi_0KkXbBFFb-113" value="" style="line;strokeWidth=2;direction=south;html=1;" vertex="1" parent="gDMrc5JoFi_0KkXbBFFb-107">
          <mxGeometry x="113.33109360518999" y="4.363636363636363" width="7.775718257645968" height="13.090909090909092" as="geometry" />
        </mxCell>
        <mxCell id="gDMrc5JoFi_0KkXbBFFb-114" value="" style="line;strokeWidth=2;direction=south;html=1;" vertex="1" parent="gDMrc5JoFi_0KkXbBFFb-107">
          <mxGeometry x="132.7703892493049" y="4.363636363636363" width="7.775718257645968" height="13.090909090909092" as="geometry" />
        </mxCell>
        <mxCell id="gDMrc5JoFi_0KkXbBFFb-115" value="" style="shape=curlyBracket;whiteSpace=wrap;html=1;rounded=1;flipH=1;labelPosition=right;verticalLabelPosition=middle;align=left;verticalAlign=middle;rotation=90;" vertex="1" parent="gDMrc5JoFi_0KkXbBFFb-107">
          <mxGeometry x="81.83943466172381" y="-30.181818181818183" width="15.551436515291936" height="124.36363636363637" as="geometry" />
        </mxCell>
        <mxCell id="gDMrc5JoFi_0KkXbBFFb-116" value="Node 1 OUT" style="text;html=1;align=center;verticalAlign=middle;whiteSpace=wrap;rounded=0;" vertex="1" parent="gDMrc5JoFi_0KkXbBFFb-107">
          <mxGeometry x="163.0956904541242" width="46.65430954587581" height="21.81818181818182" as="geometry" />
        </mxCell>
        <mxCell id="gDMrc5JoFi_0KkXbBFFb-117" value="test.json -&amp;gt; Node 1.Number_signal_OUT" style="text;html=1;align=center;verticalAlign=middle;whiteSpace=wrap;rounded=0;" vertex="1" parent="gDMrc5JoFi_0KkXbBFFb-107">
          <mxGeometry y="38.18181818181818" width="179.23030583873958" height="21.81818181818182" as="geometry" />
        </mxCell>
        <mxCell id="gDMrc5JoFi_0KkXbBFFb-118" value="" style="points=[[0.25,0,0],[0.5,0,0],[0.75,0,0],[1,0.25,0],[1,0.5,0],[1,0.75,0],[0.75,1,0],[0.5,1,0],[0.25,1,0],[0,0.75,0],[0,0.5,0],[0,0.25,0]];shape=mxgraph.bpmn.task2;whiteSpace=wrap;rectStyle=rounded;size=10;html=1;container=1;expand=0;collapsible=0;taskMarker=abstract;isLoopStandard=1;align=left;" vertex="1" parent="1">
          <mxGeometry x="887" y="220" width="168" height="80" as="geometry" />
        </mxCell>
        <mxCell id="gDMrc5JoFi_0KkXbBFFb-119" value="&lt;span style=&quot;color: rgb(0, 0, 0); font-family: Helvetica; font-size: 12px; font-style: normal; font-variant-ligatures: normal; font-variant-caps: normal; font-weight: 400; letter-spacing: normal; orphans: 2; text-align: left; text-indent: 0px; text-transform: none; widows: 2; word-spacing: 0px; -webkit-text-stroke-width: 0px; white-space: normal; background-color: rgb(255, 255, 255); text-decoration-thickness: initial; text-decoration-style: initial; text-decoration-color: initial; float: none; display: inline !important;&quot;&gt;for every signal in input:&lt;/span&gt;&lt;div style=&quot;forced-color-adjust: none; color: rgb(0, 0, 0); font-family: Helvetica; font-size: 12px; font-style: normal; font-variant-ligatures: normal; font-variant-caps: normal; font-weight: 400; letter-spacing: normal; orphans: 2; text-align: left; text-indent: 0px; text-transform: none; widows: 2; word-spacing: 0px; -webkit-text-stroke-width: 0px; white-space: normal; background-color: rgb(255, 255, 255); text-decoration-thickness: initial; text-decoration-style: initial; text-decoration-color: initial;&quot;&gt;&lt;ul style=&quot;forced-color-adjust: none;&quot;&gt;&lt;li style=&quot;forced-color-adjust: none;&quot;&gt;signal.get()&lt;/li&gt;&lt;/ul&gt;&lt;/div&gt;" style="text;whiteSpace=wrap;html=1;" vertex="1" parent="gDMrc5JoFi_0KkXbBFFb-118">
          <mxGeometry x="6.501416648582108" y="4.9956123634620795" width="155" height="75" as="geometry" />
        </mxCell>
        <mxCell id="gDMrc5JoFi_0KkXbBFFb-120" style="edgeStyle=none;curved=1;rounded=0;orthogonalLoop=1;jettySize=auto;html=1;exitX=0.5;exitY=0;exitDx=0;exitDy=0;exitPerimeter=0;entryX=0.506;entryY=1.01;entryDx=0;entryDy=0;entryPerimeter=0;fontSize=12;startSize=8;endSize=8;" edge="1" parent="1" source="gDMrc5JoFi_0KkXbBFFb-118" target="gDMrc5JoFi_0KkXbBFFb-105">
          <mxGeometry relative="1" as="geometry" />
        </mxCell>
        <mxCell id="gDMrc5JoFi_0KkXbBFFb-123" style="edgeStyle=none;curved=1;rounded=0;orthogonalLoop=1;jettySize=auto;html=1;exitX=1;exitY=0.5;exitDx=0;exitDy=0;entryX=0.078;entryY=0.495;entryDx=0;entryDy=0;entryPerimeter=0;fontSize=12;startSize=8;endSize=8;" edge="1" parent="1" source="gDMrc5JoFi_0KkXbBFFb-68" target="gDMrc5JoFi_0KkXbBFFb-105">
          <mxGeometry relative="1" as="geometry" />
        </mxCell>
        <mxCell id="gDMrc5JoFi_0KkXbBFFb-124" value="class end_point:&lt;br&gt;type&lt;br&gt;index" style="rounded=1;whiteSpace=wrap;html=1;" vertex="1" parent="1">
          <mxGeometry x="672" y="357" width="120" height="60" as="geometry" />
        </mxCell>
        <mxCell id="gDMrc5JoFi_0KkXbBFFb-125" value="class signal:&lt;div&gt;source:end_point&lt;/div&gt;&lt;div&gt;dest:end_point&lt;/div&gt;" style="rounded=1;whiteSpace=wrap;html=1;" vertex="1" parent="1">
          <mxGeometry x="672" y="442" width="120" height="60" as="geometry" />
        </mxCell>
        <mxCell id="gDMrc5JoFi_0KkXbBFFb-126" value="NB: CONSIDERIAMO CHE UN INPUT POSSA ESSERE NON RICEVUTO DA RETE???" style="text;html=1;align=center;verticalAlign=middle;whiteSpace=wrap;rounded=0;fontColor=#FF3333;" vertex="1" parent="1">
          <mxGeometry x="845.37" y="-219" width="219" height="30" as="geometry" />
        </mxCell>
        <mxCell id="gDMrc5JoFi_0KkXbBFFb-127" value="&lt;div style=&quot;text-align: center;&quot;&gt;&lt;span style=&quot;background-color: transparent; color: light-dark(rgb(0, 0, 0), rgb(255, 255, 255));&quot;&gt;METHOD signaL.ACTUATE():&lt;/span&gt;&lt;/div&gt;&lt;div&gt;SWITCH:&lt;/div&gt;&lt;div&gt;&lt;span style=&quot;white-space: pre;&quot;&gt;&#x9;&lt;/span&gt;CASE UDP&lt;br&gt;&lt;/div&gt;&lt;div&gt;&lt;span style=&quot;white-space: pre;&quot;&gt;&#x9;&lt;/span&gt;&lt;span style=&quot;white-space: pre;&quot;&gt;&#x9;&lt;/span&gt;HA IL DIZIONARIO DELLA CONFIG TRAMUTATO IN &quot;ENDPOINT&quot; QUINDI&amp;nbsp;&lt;br&gt;&lt;span style=&quot;white-space: pre;&quot;&gt;&#x9;&lt;/span&gt;&lt;span style=&quot;white-space: pre;&quot;&gt;&#x9;&lt;/span&gt;PUO SCRIVERE SU SHARED MEMORY NODO DI DESTINAZIONE&lt;br&gt;&lt;/div&gt;&lt;div&gt;&lt;span style=&quot;white-space: pre;&quot;&gt;&#x9;&lt;/span&gt;CASE DAQ&lt;br&gt;&lt;/div&gt;&lt;div&gt;&lt;span style=&quot;white-space: pre;&quot;&gt;&#x9;&lt;/span&gt;&lt;span style=&quot;white-space: pre;&quot;&gt;&#x9;&lt;/span&gt;TRATTANDO IL DAQ COME NODO NON CAMBIA NULLA RISPETTO&lt;br&gt;&lt;span style=&quot;white-space: pre;&quot;&gt;&#x9;&lt;/span&gt;&lt;span style=&quot;white-space: pre;&quot;&gt;&#x9;&lt;/span&gt;SOPRA&lt;br&gt;&lt;/div&gt;&lt;div style=&quot;&quot;&gt;&lt;br&gt;&lt;/div&gt;" style="rounded=1;whiteSpace=wrap;html=1;align=left;" vertex="1" parent="1">
          <mxGeometry x="845.37" y="357" width="464.63" height="149" as="geometry" />
        </mxCell>
        <mxCell id="gDMrc5JoFi_0KkXbBFFb-129" value="&lt;div style=&quot;text-align: center;&quot;&gt;&lt;span style=&quot;background-color: transparent; color: light-dark(rgb(0, 0, 0), rgb(255, 255, 255));&quot;&gt;METHOD signaL.GET():&lt;/span&gt;&lt;/div&gt;&lt;div&gt;SWITCH:&lt;/div&gt;&lt;div&gt;&lt;span style=&quot;white-space: pre;&quot;&gt;&#x9;&lt;/span&gt;CASE UDP&lt;br&gt;&lt;/div&gt;&lt;div&gt;&lt;span style=&quot;white-space: pre;&quot;&gt;&#x9;&lt;/span&gt;&lt;span style=&quot;white-space: pre;&quot;&gt;&#x9;&lt;/span&gt;HA IL DIZIONARIO DELLA CONFIG TRAMUTATO IN &quot;ENDPOINT&quot; QUINDI&amp;nbsp;&lt;br&gt;&lt;span style=&quot;white-space: pre;&quot;&gt;&#x9;&lt;/span&gt;&lt;span style=&quot;white-space: pre;&quot;&gt;&#x9;&lt;/span&gt;PUO LEGGERE DA SHARED MEMORY NODO DI SRC E COPILARE &lt;span style=&quot;white-space: pre;&quot;&gt;&#x9;&lt;/span&gt;&lt;span style=&quot;white-space: pre;&quot;&gt;&#x9;&lt;/span&gt;L&#39;ARRAY DA MANDARE&lt;br&gt;&lt;/div&gt;&lt;div&gt;&lt;span style=&quot;white-space: pre;&quot;&gt;&#x9;&lt;/span&gt;CASE DAQ&lt;br&gt;&lt;/div&gt;&lt;div&gt;&lt;span style=&quot;white-space: pre;&quot;&gt;&#x9;&lt;/span&gt;&lt;span style=&quot;white-space: pre;&quot;&gt;&#x9;&lt;/span&gt;TRATTANDO IL DAQ COME NODO NON CAMBIA NULLA RISPETTO&lt;br&gt;&lt;span style=&quot;white-space: pre;&quot;&gt;&#x9;&lt;/span&gt;&lt;span style=&quot;white-space: pre;&quot;&gt;&#x9;&lt;/span&gt;SOPRA&lt;br&gt;&lt;/div&gt;&lt;div style=&quot;&quot;&gt;&lt;br&gt;&lt;/div&gt;" style="rounded=1;whiteSpace=wrap;html=1;align=left;" vertex="1" parent="1">
          <mxGeometry x="845.37" y="515" width="464.63" height="151" as="geometry" />
        </mxCell>
      </root>
    </mxGraphModel>
  </diagram>
</mxfile>
